# xmcd
#
# Track frame offsets:
#  150
#  13787
#  24707
#  38300
#  52372
#  64145
#  78775
#  90270
#  103875
#  117617
#  130607
#  144685
#
# Disc length: 2095 seconds
#
# Revision: 0
# Processed by: cddbd v1.5.1PL2 Copyright (c) Steve Scherf et al.
# Submitted via: Collectorz.com_Music_Collector 6.9
#
DISCID=9e082d0c
DTITLE=Red Sovine - Red Sovine Sings Hank Williams
DYEAR=1990
DGENRE=Country
TTITLE0=Be Careful Of Stones That You Throw
TTITLE1=Just Waitin'
TTITLE2=Beyond The Sunset
TTITLE3=Too Many Parties And Too Many Pals
TTITLE4=Please Make Up Your Mind
TTITLE5=I've Been Down That Road Before
TTITLE6=Men With Broken Hearts
TTITLE7=The Funeral
TTITLE8=Help Me Understand
TTITLE9=A Picture From Life's Other Side
TTITLE10=I Dreamed About Mama Last Night
TTITLE11=Everything's OK
EXTD=
EXTT0=
EXTT1=
EXTT2=
EXTT3=
EXTT4=
EXTT5=
EXTT6=
EXTT7=
EXTT8=
EXTT9=
EXTT10=
EXTT11=
PLAYORDER=
